<svg width="155" height="32" viewBox="0 0 155 32" fill="none" xmlns="http://www.w3.org/2000/svg">
<path d="M27.9901 17.6318C28.0355 17.4456 27.9211 17.2578 27.7372 17.204C20.4887 15.0873 16.7877 20.6719 16.9571 24.9608C22.6889 26.0551 26.9927 21.7189 27.9901 17.6318Z" fill="white"/>
<path opacity="0.56" d="M13.8853 23.7756C14.8813 24.324 15.9243 24.7242 16.9573 24.9606C16.1807 25.7882 14.9622 26.2828 13.2967 25.9282C13.1093 25.8884 12.99 25.7053 13.0354 25.5192C13.1813 24.9216 13.4727 24.3142 13.8865 23.777L13.8853 23.7756Z" fill="white"/>
<path opacity="0.8" d="M4.57693 11.1432C4.38567 11.1266 4.21635 11.2678 4.18829 11.4578C2.63064 22.0013 11.0783 26.0499 16.9572 24.9608C17.3245 16.7558 10.4155 11.6481 4.57693 11.1432Z" fill="white"/>
<path d="M10.4426 5.70835C10.273 5.61763 10.0613 5.68077 9.96025 5.84441C3.83295 15.7679 10.5799 23.505 16.9558 24.9609C20.8608 16.8695 16.0983 8.73388 10.4426 5.70835Z" fill="white"/>
<path d="M22.4269 8.16087C22.39 8.12734 22.331 8.12941 22.2961 8.16501C20.0436 10.4633 20.8868 11.8534 22.3305 13.6249C22.3652 13.6675 22.4302 13.6708 22.4694 13.6321C24.4716 11.6561 24.5889 10.1215 22.4269 8.16087Z" fill="white"/>
<path opacity="0.8" d="M19.7175 10.9347C19.6841 10.9716 19.6861 11.0306 19.7217 11.0655C22.0201 13.318 23.4101 12.4748 25.1816 11.0312C25.2243 10.9964 25.2275 10.9314 25.1889 10.8922C23.2128 8.89005 21.6782 8.77278 19.7175 10.9347Z" fill="white"/>
<path opacity="0.08" d="M122.771 11.6104C122.273 11.6104 121.87 12.0135 121.87 12.5108V23.7662C121.87 24.2635 122.273 24.6666 122.771 24.6666H148.433C148.93 24.6666 149.333 24.2635 149.333 23.7662V12.5108C149.333 12.0135 148.93 11.6104 148.433 11.6104H122.771Z" fill="white"/>
<g opacity="0.88">
<path d="M139.259 19.2077C139.259 20.1093 138.529 20.8398 137.627 20.8398C136.726 20.8398 135.995 20.1093 135.995 19.2077C135.995 18.3062 136.726 17.5757 137.627 17.5757C138.529 17.5757 139.259 18.3062 139.259 19.2077Z" fill="white"/>
<path d="M131.831 19.2077C131.831 20.1093 131.101 20.8398 130.199 20.8398C129.297 20.8398 128.567 20.1093 128.567 19.2077C128.567 18.3062 129.297 17.5757 130.199 17.5757C131.101 17.5757 131.831 18.3062 131.831 19.2077Z" fill="white"/>
<path fill-rule="evenodd" clip-rule="evenodd" d="M122.771 11.6104C122.273 11.6104 121.87 12.0135 121.87 12.5108V23.7662C121.87 24.2635 122.273 24.6666 122.771 24.6666H148.433C148.93 24.6666 149.333 24.2635 149.333 23.7662V12.5108C149.333 12.0135 148.93 11.6104 148.433 11.6104H122.771ZM124.571 13.8052H126.147V22.4718H124.571V13.8052ZM142.039 21.827C141.655 21.4568 141.459 20.9865 141.455 20.415H143.015C143.015 20.9576 143.529 20.9576 144.043 20.9576C144.557 20.9576 145.071 20.9576 145.071 20.5224C145.071 20.1772 144.511 20.0356 143.831 19.8638C142.785 19.5993 141.455 19.2632 141.455 18.0005C141.504 17.4766 141.729 17.03 142.106 16.6621C142.589 16.1828 143.265 15.9437 144.134 15.9437C144.958 15.9437 145.596 16.1585 146.047 16.588C146.431 16.9582 146.627 17.4285 146.632 18H145.071C145.071 17.4574 144.557 17.4574 144.043 17.4574C143.529 17.4574 143.015 17.4574 143.015 17.8948C143.015 18.2392 143.575 18.3804 144.254 18.5518C145.301 18.816 146.632 19.1519 146.632 20.415C146.582 20.939 146.357 21.385 145.981 21.7535C145.497 22.2328 144.821 22.4718 143.953 22.4718C143.127 22.4718 142.491 22.2571 142.039 21.827ZM135.939 16.4138C136.432 16.1154 137.01 15.9437 137.627 15.9437C139.43 15.9437 140.891 17.4052 140.891 19.2078C140.891 21.0104 139.43 22.4718 137.627 22.4718C137.01 22.4718 136.432 22.3001 135.939 22.0018V22.4718H134.363V13.8052H135.939V16.4138ZM130.199 15.9437C128.397 15.9437 126.935 17.4052 126.935 19.2078C126.935 21.0104 128.397 22.4718 130.199 22.4718C130.817 22.4718 131.395 22.3001 131.887 22.0018V22.4718H133.463V15.9437H131.887V16.4138C131.395 16.1154 130.817 15.9437 130.199 15.9437Z" fill="white"/>
</g>
<path d="M37.8182 7.33325H34.6667V24.6666H37.8182V7.33325Z" fill="white"/>
<path d="M104.243 14.7619V11.6104H97.94V14.7619H104.243Z" fill="white"/>
<path d="M102.626 7.33325H99.474V24.6666H102.626V7.33325Z" fill="white"/>
<path d="M52.7215 11.6104C49.1164 11.6104 46.1933 14.5334 46.1933 18.1385C46.1933 21.7436 49.1164 24.6666 52.7215 24.6666C56.3266 24.6666 59.2496 21.7436 59.2496 18.1385C59.2496 14.5334 56.3266 11.6104 52.7215 11.6104ZM55.9855 18.1385C55.9855 19.9416 54.5246 21.4026 52.7215 21.4026C50.9183 21.4026 49.4574 19.9416 49.4574 18.1385C49.4574 16.3354 50.9183 14.8744 52.7215 14.8744C54.5246 14.8744 55.9855 16.3354 55.9855 18.1385Z" fill="white"/>
<path d="M49.3449 7.33325H46.1933V24.6666H49.3449V7.33325Z" fill="white"/>
<path d="M89.836 11.6104C86.2313 11.6104 83.308 14.5334 83.308 18.1385C83.308 21.7436 86.2313 24.6666 89.836 24.6666C93.4413 24.6666 96.364 21.7436 96.364 18.1385C96.364 14.5334 93.4413 11.6104 89.836 11.6104ZM93.1 18.1385C93.1 19.9416 91.6393 21.4026 89.836 21.4026C88.0333 21.4026 86.572 19.9416 86.572 18.1385C86.572 16.3354 88.0333 14.8744 89.836 14.8744C91.6393 14.8744 93.1 16.3354 93.1 18.1385Z" fill="white"/>
<path d="M96.364 11.6104H93.2127V24.6666H96.364V11.6104Z" fill="white"/>
<path d="M67.1287 11.6104C63.5233 11.6104 60.6003 14.5334 60.6003 18.1385C60.6003 21.7436 63.5233 24.6666 67.1287 24.6666C68.9313 24.6666 70.5633 23.9362 71.744 22.7543L69.4393 20.4436C68.848 21.0356 68.0313 21.4026 67.1287 21.4026C65.7069 21.4026 64.498 20.4942 64.0501 19.2269H73.6567V18.1385C73.6567 14.5334 70.7333 11.6104 67.1287 11.6104ZM64.0501 17.0501C64.498 15.7828 65.7069 14.8744 67.1287 14.8744C68.55 14.8744 69.7587 15.7828 70.2067 17.0501H64.0501Z" fill="white"/>
<path d="M112.104 11.6104C108.499 11.6104 105.576 14.5334 105.576 18.1385C105.576 21.7436 108.499 24.6666 112.104 24.6666C113.907 24.6666 115.539 23.9362 116.72 22.7543L114.415 20.4436C113.824 21.0356 113.007 21.4026 112.104 21.4026C110.682 21.4026 109.473 20.4942 109.025 19.2269H118.632V18.1385C118.632 14.5334 115.709 11.6104 112.104 11.6104ZM109.025 17.0501C109.473 15.7828 110.682 14.8744 112.104 14.8744C113.525 14.8744 114.734 15.7828 115.182 17.0501H109.025Z" fill="white"/>
<path d="M78.6087 11.6104H75.4573V24.6666H78.6087V11.6104Z" fill="white"/>
<path d="M81.9573 11.6104C78.368 11.6104 75.4573 14.521 75.4573 18.1104H78.6087C78.6087 16.2881 80.1353 14.8114 81.9573 14.8114V11.6104Z" fill="white"/>
<path d="M43.6046 13.749H40.4531V24.6668H43.6046V13.749Z" fill="white"/>
<path d="M42.0289 11.6103C43.2099 11.6103 44.1674 10.6529 44.1674 9.47179C44.1674 8.29072 43.2099 7.33325 42.0289 7.33325C40.8478 7.33325 39.8903 8.29072 39.8903 9.47179C39.8903 10.6529 40.8478 11.6103 42.0289 11.6103Z" fill="white"/>
</svg>
