<svg width="133" height="48" viewBox="0 0 133 48" fill="none" xmlns="http://www.w3.org/2000/svg">
<path opacity="0.88" fill-rule="evenodd" clip-rule="evenodd" d="M7.91248 37.5C7.91248 36.423 8.78552 35.55 9.86248 35.55H38.625C39.7019 35.55 40.575 36.423 40.575 37.5C40.575 38.5769 39.7019 39.45 38.625 39.45H9.86248C8.78552 39.45 7.91248 38.5769 7.91248 37.5Z" fill="white"/>
<path fill-rule="evenodd" clip-rule="evenodd" d="M24 20.925C19.9614 20.925 16.6875 24.1989 16.6875 28.2375C16.6875 32.2761 19.9614 35.55 24 35.55C25.0769 35.55 25.95 36.4231 25.95 37.5C25.95 38.577 25.0769 39.45 24 39.45C17.8075 39.45 12.7875 34.43 12.7875 28.2375C12.7875 22.045 17.8075 17.025 24 17.025C30.1925 17.025 35.2125 22.045 35.2125 28.2375C35.2125 29.3145 34.3394 30.1875 33.2625 30.1875C32.1855 30.1875 31.3125 29.3145 31.3125 28.2375C31.3125 24.1989 28.0386 20.925 24 20.925Z" fill="white"/>
<path opacity="0.72" fill-rule="evenodd" clip-rule="evenodd" d="M24 12.15C15.3844 12.15 8.4 19.1344 8.4 27.75C8.4 28.827 7.52696 29.7 6.45 29.7C5.37304 29.7 4.5 28.827 4.5 27.75C4.5 16.9804 13.2304 8.25 24 8.25C34.7696 8.25 43.5 16.9804 43.5 27.75C43.5 28.827 42.627 29.7 41.55 29.7C40.473 29.7 39.6 28.827 39.6 27.75C39.6 19.1344 32.6156 12.15 24 12.15Z" fill="white"/>
<path fill-rule="evenodd" clip-rule="evenodd" d="M75.3915 34.4533H77.8865C78.4323 34.4533 78.9001 34.0663 78.9892 33.5246L80.0585 27.0351C80.738 22.8783 79.3679 19.8823 77.4967 18.3898C76.4942 17.6159 75.2689 17.0632 73.9323 16.8421C69.1427 16.0682 64.1304 19.2742 62.6823 24.1386C61.2343 29.003 63.9076 33.5357 68.6972 34.3096C70.7578 34.6412 73.019 34.4201 75.0239 33.4362C75.0796 33.4141 75.113 33.4362 75.1019 33.5025L75.0128 34.0221C74.9793 34.3206 75.1241 34.4533 75.3915 34.4533ZM69.811 30.3296C72.3729 30.7718 74.8234 29.003 75.6031 26.3497C76.4942 23.6964 75.3803 21.1537 72.8185 20.7114C70.2566 20.2692 67.8061 22.0381 67.0264 24.6914C66.1353 27.3447 67.2492 29.8874 69.811 30.3296Z" fill="white"/>
<path d="M84.2538 34.4644C84.7885 34.4644 85.2647 34.0664 85.3538 33.5468C86.6141 26.5993 87.6207 19.7507 88.8231 12.7951C88.8788 12.4634 88.6111 12.1539 88.2769 12.1539L85.6154 12.1539C85.0807 12.1539 84.6122 12.5519 84.5231 13.0715C83.2628 20.019 82.2562 26.8675 81.0538 33.8232C80.9981 34.1548 81.2658 34.4644 81.6 34.4644H84.2538Z" fill="white"/>
<path fill-rule="evenodd" clip-rule="evenodd" d="M101.425 34.4533H103.92C104.466 34.4533 104.934 34.0663 105.023 33.5246L106.092 27.0351C106.772 22.8783 105.402 19.8823 103.53 18.3898C102.528 17.6159 101.303 17.0632 99.966 16.8421C95.1764 16.0682 90.1641 19.2742 88.716 24.1386C87.268 29.003 89.9413 33.5357 94.7309 34.3096C96.7915 34.6412 99.0527 34.4201 101.058 33.4362C101.113 33.4141 101.147 33.4362 101.136 33.5025L101.046 34.0221C101.013 34.3206 101.158 34.4533 101.425 34.4533ZM95.8447 30.3296C98.4066 30.7718 100.857 29.003 101.637 26.3497C102.528 23.6964 101.414 21.1537 98.8522 20.7114C96.2903 20.2692 93.8398 22.0381 93.0601 24.6914C92.169 27.3447 93.2829 29.8874 95.8447 30.3296Z" fill="white"/>
<path fill-rule="evenodd" clip-rule="evenodd" d="M120.308 39.8462H122.726C123.272 39.8462 123.739 39.4571 123.829 38.9154L125.823 27.0351C126.503 22.8783 125.133 19.8823 123.261 18.3898C122.259 17.6159 121.034 17.0632 119.697 16.8421C114.907 16.0682 109.895 19.2742 108.447 24.1386C106.999 29.003 109.672 33.5357 114.462 34.3096C116.523 34.6412 118.784 34.4201 120.789 33.4362C120.844 33.4141 120.878 33.4362 120.867 33.5025L119.923 39.3008C119.89 39.5993 120.04 39.8462 120.308 39.8462ZM115.576 30.3296C118.138 30.7718 120.588 29.003 121.368 26.3497C122.259 23.6964 121.145 21.1537 118.583 20.7114C116.021 20.2692 113.571 22.0381 112.791 24.6914C111.9 27.3447 113.014 29.8874 115.576 30.3296Z" fill="white"/>
<path d="M55.7013 34.4533C56.236 34.4533 56.7038 34.0664 56.7929 33.5468C57.1954 31.328 57.6549 28.3989 58.0422 25.9846H59.3362C59.865 25.9846 60.3277 25.6129 60.4158 25.088L60.6912 23.5682C60.7573 23.2293 60.4929 22.9231 60.1514 22.9231H58.5491C58.6018 22.6254 58.6498 22.3663 58.6923 22.1539C59.4615 18.3077 61.3384 16.9608 64.7267 16.9608C65.2168 16.9608 65.6401 16.6291 65.7738 16.1648L66.4755 12.8885C66.5646 12.5679 66.3418 12.2142 66.0077 12.192C61.6414 11.783 56.439 14.7016 54.8461 19.0243C54.6241 19.5753 52.5644 31.4905 52.165 33.801L52.1612 33.8232C52.1055 34.1548 52.3728 34.4644 52.707 34.4644H55.6902L55.7013 34.4533Z" fill="white"/>
</svg>
