<svg width="992" height="360" viewBox="0 0 992 360" fill="none" xmlns="http://www.w3.org/2000/svg">
<path opacity="0.88" fill-rule="evenodd" clip-rule="evenodd" d="M59.3437 281.25C59.3437 273.173 65.8916 266.625 73.9687 266.625H289.687C297.765 266.625 304.312 273.173 304.312 281.25C304.312 289.327 297.765 295.875 289.687 295.875H73.9687C65.8916 295.875 59.3437 289.327 59.3437 281.25Z" fill="#003FFF"/>
<path fill-rule="evenodd" clip-rule="evenodd" d="M180 156.938C149.711 156.938 125.156 181.492 125.156 211.781C125.156 242.071 149.711 266.625 180 266.625C188.077 266.625 194.625 273.173 194.625 281.25C194.625 289.327 188.077 295.875 180 295.875C133.556 295.875 95.9062 258.225 95.9062 211.781C95.9062 165.338 133.556 127.688 180 127.688C226.444 127.688 264.094 165.338 264.094 211.781C264.094 219.858 257.546 226.406 249.469 226.406C241.392 226.406 234.844 219.858 234.844 211.781C234.844 181.492 210.289 156.938 180 156.938Z" fill="#003FFF"/>
<path opacity="0.72" fill-rule="evenodd" clip-rule="evenodd" d="M180 91.125C115.383 91.125 63 143.508 63 208.125C63 216.202 56.4522 222.75 48.375 222.75C40.2978 222.75 33.75 216.202 33.75 208.125C33.75 127.353 99.2284 61.875 180 61.875C260.772 61.875 326.25 127.353 326.25 208.125C326.25 216.202 319.702 222.75 311.625 222.75C303.548 222.75 297 216.202 297 208.125C297 143.508 244.617 91.125 180 91.125Z" fill="#003FFF"/>
<path d="M565.436 262.726H584.149C588.242 262.726 591.751 259.824 592.419 255.761L600.439 207.09C605.535 175.914 595.26 153.444 581.225 142.25C573.706 136.446 564.517 132.3 554.492 130.642C518.571 124.838 480.978 148.884 470.118 185.366C459.258 221.849 479.307 255.844 515.229 261.648C530.684 264.136 547.642 262.478 562.679 255.098C563.097 254.932 563.348 255.098 563.264 255.596L562.596 259.493C562.345 261.731 563.431 262.726 565.436 262.726ZM567.023 201.949C561.176 221.849 542.797 235.116 523.583 231.799C504.369 228.482 496.015 209.412 502.698 189.512C508.546 169.612 526.924 156.346 546.138 159.663C565.353 162.979 573.706 182.05 567.023 201.949Z" fill="#0C2982"/>
<path d="M760.689 262.726H779.402C783.495 262.726 787.004 259.824 787.672 255.761L795.692 207.09C800.788 175.914 790.512 153.444 776.478 142.25C768.959 136.446 759.77 132.3 749.745 130.642C713.823 124.838 676.231 148.884 665.37 185.366C654.51 221.849 674.56 255.844 710.482 261.648C725.936 264.136 742.895 262.478 757.932 255.098C758.35 254.932 758.6 255.098 758.517 255.596L757.849 259.493C757.598 261.731 758.684 262.726 760.689 262.726ZM762.276 201.949C756.428 221.849 738.05 235.116 718.836 231.799C699.622 228.482 691.268 209.412 697.951 189.512C703.799 169.612 722.177 156.346 741.391 159.663C760.605 162.979 768.959 182.05 762.276 201.949Z" fill="#0C2982"/>
<path d="M901.387 296.547H920.1C924.194 296.547 927.702 293.645 928.371 289.582L943.674 207.09C948.77 175.914 938.495 153.444 924.46 142.25C916.942 136.446 907.752 132.3 897.728 130.642C861.806 124.838 824.213 148.884 813.353 185.366C802.493 221.849 822.542 255.844 858.464 261.648C873.919 264.136 890.877 262.478 905.914 255.098C906.332 254.932 906.583 255.098 906.499 255.596L898.547 293.313C898.296 295.552 899.382 296.547 901.387 296.547ZM910.259 201.949C904.411 221.849 886.032 235.116 866.818 231.799C847.604 228.482 839.25 209.412 845.933 189.512C851.781 169.612 870.16 156.346 889.374 159.663C908.588 162.979 916.942 182.05 910.259 201.949Z" fill="#0C2982"/>
<path d="M637.418 255.928C636.75 259.825 633.241 262.727 629.231 262.727L629.147 262.81H609.26C606.754 262.81 604.749 260.488 605.167 258C614.184 205.833 627.356 154.469 636.808 102.363C637.476 98.4657 640.985 95.5637 644.995 95.5637L645.078 95.4808H664.966C667.472 95.4808 669.477 97.8024 669.059 100.29C660.042 152.457 646.87 203.821 637.418 255.928Z" fill="#0C2982"/>
<path d="M425.947 255.928C425.279 259.825 421.77 262.727 417.76 262.727L417.677 262.809H395.303C392.796 262.809 390.791 260.488 391.209 258C394.133 241.086 413.47 151.155 415.141 147.009C427.087 114.589 460.335 92.6992 493.083 95.7671C495.589 95.9329 497.26 98.5862 496.591 100.991L491.328 125.563C490.326 129.045 487.151 131.533 483.476 131.533C456.361 131.533 450.967 142.836 442.052 176.572C441.973 176.87 441.894 177.17 441.815 177.472C440.482 182.539 438.573 190.577 436.647 199.534C436.565 199.917 436.483 200.302 436.4 200.688C435.253 206.072 434.09 211.744 432.881 217.704L425.947 255.928Z" fill="#0C2982"/>
<path d="M442.052 176.572C441.973 176.87 441.894 177.17 441.815 177.472C440.482 182.539 438.573 190.577 436.647 199.534H447.215C451.181 199.534 454.651 196.746 455.312 192.809H455.23L457.378 181.411C457.873 178.868 455.891 176.572 453.329 176.572H442.052Z" fill="#0C2982"/>
</svg>
