<svg width="82" height="24" viewBox="0 0 82 24" fill="none" xmlns="http://www.w3.org/2000/svg">
<path opacity="0.88" fill-rule="evenodd" clip-rule="evenodd" d="M5.8125 17.25C5.8125 16.8358 6.14829 16.5 6.5625 16.5H17.625C18.0392 16.5 18.375 16.8358 18.375 17.25C18.375 17.6642 18.0392 18 17.625 18H6.5625C6.14829 18 5.8125 17.6642 5.8125 17.25Z" fill="#003FFF"/>
<path fill-rule="evenodd" clip-rule="evenodd" d="M12 10.875C10.4467 10.875 9.1875 12.1342 9.1875 13.6875C9.1875 15.2408 10.4467 16.5 12 16.5C12.4142 16.5 12.75 16.8358 12.75 17.25C12.75 17.6642 12.4142 18 12 18C9.61827 18 7.6875 16.0692 7.6875 13.6875C7.6875 11.3058 9.61827 9.375 12 9.375C14.3817 9.375 16.3125 11.3058 16.3125 13.6875C16.3125 14.1017 15.9767 14.4375 15.5625 14.4375C15.1483 14.4375 14.8125 14.1017 14.8125 13.6875C14.8125 12.1342 13.5533 10.875 12 10.875Z" fill="#003FFF"/>
<path opacity="0.72" fill-rule="evenodd" clip-rule="evenodd" d="M12 7.5C8.68629 7.5 6 10.1863 6 13.5C6 13.9142 5.66421 14.25 5.25 14.25C4.83579 14.25 4.5 13.9142 4.5 13.5C4.5 9.35786 7.85786 6 12 6C16.1421 6 19.5 9.35786 19.5 13.5C19.5 13.9142 19.1642 14.25 18.75 14.25C18.3358 14.25 18 13.9142 18 13.5C18 10.1863 15.3137 7.5 12 7.5Z" fill="#003FFF"/>
<path d="M26 15.2419V8.75H30.6068V10.1231H27.378L27.3616 11.4963H30.1828L30.1746 12.8613H27.3616V15.2419H26Z" fill="#003FFF"/>
<path d="M35.5152 15.2175C35.556 15.1525 35.6049 15.0469 35.6783 14.9087L35.8414 14.5919L37.0073 12.2519C37.4068 11.4394 38.002 10.31 38.7766 8.75L39.2495 9.6925L40.5786 12.325L42.0299 15.2175H40.5378C40.4128 14.9846 40.3231 14.8058 40.2687 14.6812H37.3824L37.2438 14.9412C37.1867 15.0631 37.1378 15.1525 37.1052 15.2175H35.5152ZM38.0428 13.2675H39.5431C39.4289 13.0237 39.274 12.715 39.0783 12.3412L38.9642 12.1056C38.8989 11.9837 38.8582 11.8944 38.8256 11.8294C38.8256 11.8294 38.8256 11.8862 38.7766 11.935C38.7783 11.9621 38.7783 11.9892 38.7766 12.0162L38.5157 12.5281C38.4016 12.7556 38.32 12.9344 38.2548 13.0481C38.2187 13.1263 38.1778 13.2023 38.1325 13.2756L38.0428 13.2675Z" fill="#003FFF"/>
<path d="M46.8813 15.25V8.75H48.2429V13.8769H51.6919V15.25H46.8813Z" fill="#003FFF"/>
<path d="M56.5351 15.2175L56.6981 14.9006L56.8531 14.5838L58.0272 12.2438C58.4267 11.4313 59.0138 10.3019 59.7965 8.75L60.2694 9.6925L61.5903 12.3169L63.0579 15.2175H61.5251L61.256 14.6731H58.3696C58.3622 14.6688 58.3538 14.6666 58.3452 14.6666C58.3366 14.6666 58.3282 14.6688 58.3207 14.6731L58.1903 14.9331C58.139 15.0226 58.0928 15.1149 58.0516 15.2094L56.5351 15.2175ZM60.5303 13.2594C60.408 13.0156 60.2613 12.7069 60.0656 12.3331C60.0656 12.3331 60.0085 12.2194 59.9433 12.0975C59.878 11.9756 59.7965 11.8944 59.7965 11.7888L59.7394 11.8944C59.7394 11.9431 59.7394 11.9675 59.7394 11.9756C59.7394 11.9838 59.5927 12.26 59.4785 12.4875L59.2176 13.0075C59.1815 13.0857 59.1406 13.1617 59.0953 13.235C59.0821 13.2307 59.0678 13.2308 59.0546 13.2352C59.0414 13.2396 59.0299 13.248 59.0219 13.2594H60.5303Z" fill="#003FFF"/>
<path d="M66.5395 11.992C66.5394 11.5588 66.6282 11.1303 66.8004 10.7326C66.9627 10.3474 67.198 9.99709 67.4935 9.70071C67.7893 9.40438 68.1413 9.16962 68.5289 9.01009C68.9299 8.83534 69.3633 8.74675 69.8009 8.75009C70.235 8.74721 70.6651 8.83293 71.0647 9.00197C71.4512 9.16372 71.8028 9.39821 72.1002 9.69259C72.6412 10.2311 72.9752 10.9418 73.0437 11.7007C73.1123 12.4596 72.9111 13.2184 72.4753 13.8445L72.8748 14.202L73.258 14.5513L74 15.2338H71.9616L71.4724 14.7788C70.9864 15.0897 70.4191 15.2508 69.8417 15.242C69.4097 15.2421 68.9822 15.1536 68.586 14.982C67.8014 14.6563 67.1753 14.0383 66.8412 13.2595C66.6558 12.8616 66.5532 12.4304 66.5395 11.992ZM67.9093 11.992C67.9093 12.4919 68.1086 12.9714 68.4633 13.3249C68.8181 13.6784 69.2992 13.877 69.8009 13.877C69.9976 13.8724 70.1925 13.8395 70.3798 13.7795L69.8172 13.2676C69.5645 13.0401 69.3769 12.8695 69.2546 12.7476L69.0426 12.5526H71.0729L71.4561 12.902C71.6107 12.6237 71.6894 12.31 71.6844 11.992C71.6898 11.7449 71.6433 11.4994 71.5478 11.2713C71.4523 11.0432 71.31 10.8376 71.1299 10.6676C70.9581 10.4898 70.7515 10.349 70.5229 10.254C70.2943 10.1589 70.0486 10.1117 69.8009 10.1151C69.5521 10.1125 69.3054 10.1601 69.0756 10.255C68.8458 10.35 68.6376 10.4903 68.4637 10.6676C68.2926 10.8422 68.1589 11.0497 68.0706 11.2773C67.9823 11.5049 67.9413 11.7481 67.95 11.992H67.9093Z" fill="#003FFF"/>
</svg>
