<svg width="133" height="48" viewBox="0 0 133 48" fill="none" xmlns="http://www.w3.org/2000/svg">
<path opacity="0.88" fill-rule="evenodd" clip-rule="evenodd" d="M7.91249 37.5C7.91249 36.423 8.78554 35.55 9.86249 35.55H38.625C39.7019 35.55 40.575 36.423 40.575 37.5C40.575 38.577 39.7019 39.45 38.625 39.45H9.86249C8.78554 39.45 7.91249 38.577 7.91249 37.5Z" fill="white"/>
<path fill-rule="evenodd" clip-rule="evenodd" d="M24 20.925C19.9614 20.925 16.6875 24.1989 16.6875 28.2375C16.6875 32.2761 19.9614 35.55 24 35.55C25.0769 35.55 25.95 36.423 25.95 37.5C25.95 38.577 25.0769 39.45 24 39.45C17.8075 39.45 12.7875 34.43 12.7875 28.2375C12.7875 22.045 17.8075 17.025 24 17.025C30.1925 17.025 35.2125 22.045 35.2125 28.2375C35.2125 29.3145 34.3395 30.1875 33.2625 30.1875C32.1855 30.1875 31.3125 29.3145 31.3125 28.2375C31.3125 24.1989 28.0386 20.925 24 20.925Z" fill="white"/>
<path opacity="0.72" fill-rule="evenodd" clip-rule="evenodd" d="M24 12.15C15.3844 12.15 8.4 19.1344 8.4 27.75C8.4 28.827 7.52696 29.7 6.45 29.7C5.37304 29.7 4.5 28.827 4.5 27.75C4.5 16.9804 13.2304 8.25 24 8.25C34.7696 8.25 43.5 16.9804 43.5 27.75C43.5 28.827 42.627 29.7 41.55 29.7C40.473 29.7 39.6 28.827 39.6 27.75C39.6 19.1344 32.6156 12.15 24 12.15Z" fill="white"/>
<path d="M75.9057 34.7855H78.3734C78.9132 34.7855 79.3759 34.4028 79.464 33.867L80.5216 27.4487C81.1936 23.3375 79.8385 20.3744 77.9878 18.8983C76.9963 18.1329 75.7845 17.5862 74.4626 17.3675C69.7255 16.6021 64.7682 19.773 63.336 24.584C61.9039 29.395 64.5478 33.878 69.2849 34.6433C71.3229 34.9714 73.5592 34.7527 75.5422 33.7796C75.5973 33.7577 75.6303 33.7796 75.6193 33.8452L75.5311 34.3591C75.4981 34.6543 75.6413 34.7855 75.9057 34.7855ZM76.115 26.7708C75.3439 29.395 72.9203 31.1444 70.3865 30.7071C67.8527 30.2697 66.7511 27.7549 67.6324 25.1307C68.4036 22.5065 70.8272 20.7571 73.3609 21.1944C75.8947 21.6318 76.9963 24.1466 76.115 26.7708Z" fill="white"/>
<path d="M101.654 34.7855H104.121C104.661 34.7855 105.124 34.4028 105.212 33.867L106.27 27.4487C106.942 23.3375 105.587 20.3744 103.736 18.8983C102.744 18.1329 101.533 17.5862 100.211 17.3675C95.4736 16.6021 90.5162 19.773 89.0841 24.584C87.652 29.395 90.2959 33.878 95.0329 34.6433C97.0709 34.9714 99.3073 34.7527 101.29 33.7796C101.345 33.7577 101.378 33.7796 101.367 33.8452L101.279 34.3591C101.246 34.6543 101.389 34.7855 101.654 34.7855ZM101.863 26.7708C101.092 29.395 98.6683 31.1444 96.1346 30.7071C93.6008 30.2697 92.4992 27.7549 93.3805 25.1307C94.1516 22.5065 96.5752 20.7571 99.109 21.1944C101.643 21.6318 102.744 24.1466 101.863 26.7708Z" fill="white"/>
<path d="M120.208 39.2454H122.675C123.215 39.2454 123.678 38.8627 123.766 38.327L125.784 27.4487C126.456 23.3375 125.101 20.3744 123.25 18.8983C122.259 18.1329 121.047 17.5862 119.725 17.3675C114.988 16.6021 110.031 19.773 108.599 24.584C107.166 29.395 109.81 33.878 114.547 34.6433C116.585 34.9714 118.822 34.7527 120.805 33.7796C120.86 33.7577 120.893 33.7796 120.882 33.8452L119.833 38.819C119.8 39.1142 119.943 39.2454 120.208 39.2454ZM121.378 26.7708C120.606 29.395 118.183 31.1444 115.649 30.7071C113.115 30.2697 112.014 27.7549 112.895 25.1307C113.666 22.5065 116.09 20.7571 118.623 21.1944C121.157 21.6318 122.259 24.1466 121.378 26.7708Z" fill="white"/>
<path d="M85.398 33.8889C85.3098 34.4028 84.8471 34.7855 84.3184 34.7855L84.3073 34.7965H81.6848C81.3543 34.7965 81.0899 34.4903 81.145 34.1623C82.3341 27.283 84.0711 20.5096 85.3176 13.6383C85.4057 13.1244 85.8684 12.7417 86.3972 12.7417L86.4082 12.7308H89.0307C89.3612 12.7308 89.6256 13.0369 89.5705 13.3649C88.3814 20.2442 86.6444 27.0176 85.398 33.8889Z" fill="white"/>
<path d="M57.5113 33.8889C57.4231 34.4028 56.9604 34.7855 56.4316 34.7855L56.4206 34.7965H53.4702C53.1397 34.7965 52.8753 34.4903 52.9304 34.1623C53.3159 31.9317 55.8659 20.0725 56.0862 19.5258C57.6615 15.2506 62.046 12.364 66.3645 12.7685C66.6949 12.7904 66.9153 13.1403 66.8272 13.4574L66.1331 16.6977C66.0009 17.1569 65.5823 17.485 65.0976 17.485C61.4904 17.485 60.7983 19.0019 59.6037 23.543C59.4205 24.2397 59.1545 25.3626 58.8897 26.6045C58.7384 27.3144 58.585 28.0624 58.4256 28.8483L57.5113 33.8889Z" fill="white"/>
</svg>
