<svg width="133" height="48" viewBox="0 0 133 48" fill="none" xmlns="http://www.w3.org/2000/svg">
<path opacity="0.88" fill-rule="evenodd" clip-rule="evenodd" d="M7.91249 37.5C7.91249 36.423 8.78554 35.55 9.86249 35.55H38.625C39.7019 35.55 40.575 36.423 40.575 37.5C40.575 38.577 39.7019 39.45 38.625 39.45H9.86249C8.78554 39.45 7.91249 38.577 7.91249 37.5Z" fill="#0C2982"/>
<path fill-rule="evenodd" clip-rule="evenodd" d="M24 20.925C19.9614 20.925 16.6875 24.1989 16.6875 28.2375C16.6875 32.2761 19.9614 35.55 24 35.55C25.0769 35.55 25.95 36.423 25.95 37.5C25.95 38.577 25.0769 39.45 24 39.45C17.8075 39.45 12.7875 34.43 12.7875 28.2375C12.7875 22.045 17.8075 17.025 24 17.025C30.1925 17.025 35.2125 22.045 35.2125 28.2375C35.2125 29.3145 34.3395 30.1875 33.2625 30.1875C32.1855 30.1875 31.3125 29.3145 31.3125 28.2375C31.3125 24.1989 28.0386 20.925 24 20.925Z" fill="#0C2982"/>
<path opacity="0.72" fill-rule="evenodd" clip-rule="evenodd" d="M24 12.15C15.3844 12.15 8.4 19.1344 8.4 27.75C8.4 28.827 7.52696 29.7 6.45 29.7C5.37304 29.7 4.5 28.827 4.5 27.75C4.5 16.9804 13.2304 8.25 24 8.25C34.7696 8.25 43.5 16.9804 43.5 27.75C43.5 28.827 42.627 29.7 41.55 29.7C40.473 29.7 39.6 28.827 39.6 27.75C39.6 19.1344 32.6156 12.15 24 12.15Z" fill="#0C2982"/>
<path d="M75.3915 35.0302H77.8865C78.4323 35.0302 78.9001 34.6432 78.9892 34.1015L80.0585 27.612C80.738 23.4552 79.3679 20.4592 77.4967 18.9667C76.4942 18.1928 75.269 17.6401 73.9323 17.4189C69.1427 16.6451 64.1304 19.8511 62.6823 24.7155C61.2343 29.5799 63.9076 34.1126 68.6972 34.8865C70.7578 35.2181 73.019 34.997 75.0239 34.0131C75.0796 33.991 75.113 34.0131 75.1019 34.0794L75.0128 34.599C74.9793 34.8975 75.1241 35.0302 75.3915 35.0302ZM75.6031 26.9266C74.8234 29.5799 72.3729 31.3487 69.811 30.9065C67.2492 30.4643 66.1353 27.9216 67.0264 25.2683C67.8061 22.615 70.2566 20.8461 72.8185 21.2883C75.3803 21.7306 76.4942 24.2733 75.6031 26.9266Z" fill="#0C2982"/>
<path d="M101.425 35.0302H103.92C104.466 35.0302 104.934 34.6432 105.023 34.1015L106.092 27.612C106.772 23.4552 105.402 20.4592 103.53 18.9667C102.528 18.1928 101.303 17.6401 99.966 17.4189C95.1764 16.6451 90.1641 19.8511 88.7161 24.7155C87.268 29.5799 89.9413 34.1126 94.7309 34.8865C96.7915 35.2181 99.0527 34.997 101.058 34.0131C101.113 33.991 101.147 34.0131 101.136 34.0794L101.046 34.599C101.013 34.8975 101.158 35.0302 101.425 35.0302ZM101.637 26.9266C100.857 29.5799 98.4066 31.3487 95.8448 30.9065C93.2829 30.4643 92.169 27.9216 93.0601 25.2683C93.8398 22.615 96.2903 20.8461 98.8522 21.2883C101.414 21.7306 102.528 24.2733 101.637 26.9266Z" fill="#0C2982"/>
<path d="M120.185 39.5396H122.68C123.226 39.5396 123.694 39.1527 123.783 38.6109L125.823 27.612C126.503 23.4552 125.133 20.4592 123.261 18.9667C122.259 18.1928 121.034 17.6401 119.697 17.4189C114.907 16.6451 109.895 19.8511 108.447 24.7155C106.999 29.5799 109.672 34.1126 114.462 34.8865C116.523 35.2181 118.784 34.997 120.789 34.0131C120.844 33.991 120.878 34.0131 120.867 34.0794L119.806 39.1084C119.773 39.4069 119.918 39.5396 120.185 39.5396ZM121.368 26.9266C120.588 29.5799 118.138 31.3487 115.576 30.9065C113.014 30.4643 111.9 27.9216 112.791 25.2683C113.571 22.615 116.021 20.8461 118.583 21.2883C121.145 21.7306 122.259 24.2733 121.368 26.9266Z" fill="#0C2982"/>
<path d="M84.989 34.1237C84.8999 34.6433 84.4321 35.0302 83.8975 35.0302L83.8863 35.0413H81.2347C80.9005 35.0413 80.6332 34.7317 80.6889 34.4001C81.8912 27.4444 83.6475 20.5959 84.9077 13.6484C84.9968 13.1288 85.4647 12.7418 85.9993 12.7418L86.0105 12.7308H88.6621C88.9963 12.7308 89.2636 13.0403 89.2079 13.372C88.0055 20.3276 86.2493 27.1762 84.989 34.1237Z" fill="#0C2982"/>
<path d="M56.7929 34.1237C56.7038 34.6433 56.236 35.0302 55.7014 35.0302L55.6902 35.0413H52.707C52.3729 35.0413 52.1055 34.7317 52.1612 34.4001C52.5511 32.1448 55.1293 20.1539 55.3521 19.6012C56.9449 15.2785 61.378 12.3599 65.7444 12.7689C66.0785 12.791 66.3013 13.1448 66.2122 13.4654L65.5105 16.7417C65.3768 17.206 64.9535 17.5377 64.4634 17.5377C60.8481 17.5377 60.129 19.0447 58.9403 23.543C58.9298 23.5827 58.9192 23.6227 58.9086 23.6629C58.7309 24.3385 58.4763 25.4103 58.2197 26.6045C58.2087 26.6556 58.1977 26.7069 58.1867 26.7584C58.0337 27.4762 57.8786 28.2325 57.7174 29.0271L56.7929 34.1237Z" fill="#0C2982"/>
<path d="M58.9403 23.543C58.9298 23.5827 58.9192 23.6227 58.9086 23.6629C58.7309 24.3385 58.4763 25.4103 58.2197 26.6045H59.6287C60.1575 26.6045 60.6202 26.2327 60.7083 25.7079H60.6973L60.9837 24.1881C61.0498 23.8491 60.7854 23.543 60.4439 23.543H58.9403Z" fill="#0C2982"/>
</svg>
