<svg width="80" height="80" viewBox="0 0 80 80" fill="none" xmlns="http://www.w3.org/2000/svg">
<path opacity="0.24" d="M51.4801 34.2878C50.8929 32.9971 50.0954 31.813 49.1201 30.7838C48.595 30.2386 48.0161 29.7481 47.3921 29.3198L47.1281 29.1518C47.9681 27.1998 47.7041 24.4318 47.0561 22.4478C46.7474 21.4042 46.1706 20.46 45.3831 19.709C44.5956 18.958 43.625 18.4266 42.5681 18.1678C40.3521 17.6158 37.9441 17.8638 35.6881 17.9038C34.5841 17.9038 33.3921 17.8238 32.4401 18.4638C32.046 18.7556 31.7222 19.132 31.4924 19.5653C31.2626 19.9986 31.1327 20.4778 31.1121 20.9678C31.0637 22.0489 31.3761 23.1155 32.0001 23.9998C32.6721 25.0238 33.6561 25.8798 34.0721 27.0558C34.2983 27.7758 34.459 28.5148 34.5521 29.2638C34.5642 29.7868 34.6671 30.3038 34.8561 30.7918C30.8561 34.6718 27.7521 40.3358 28.3121 45.9918C28.5601 48.4718 29.9761 52.4478 33.2641 51.1278C33.8001 50.9118 34.3681 50.3278 34.9521 50.2798C35.5361 50.2318 36.2481 50.8718 36.7121 51.1838C38.0058 52.0864 39.5507 52.5594 41.1281 52.5358C42.7281 52.4878 44.0721 51.7358 45.5441 51.1758C46.2041 50.8916 46.9238 50.7735 47.6401 50.8318C48.4349 50.9848 49.2533 50.9657 50.0401 50.7758C52.7681 49.9038 53.1121 46.5758 53.1601 44.1598C53.1921 40.8478 52.9041 37.4078 51.4801 34.2878Z" fill="#F1F1F1"/>
<path d="M43.9279 24.8007C43.9279 24.8007 45.3599 21.4647 42.2159 20.6087C39.0719 19.7527 37.4159 22.2087 32.6719 20.6087C32.6719 20.6087 32.9599 24.7047 36.2559 24.8007C37.8079 24.8487 39.6079 24.8487 41.0559 24.8407" stroke="white" stroke-width="1.5" stroke-linecap="round" stroke-linejoin="round"/>
<path d="M36.2561 24.7996C36.2561 24.7996 35.2401 32.9596 38.4641 32.7996C41.1281 32.6796 43.5841 31.4476 44.2561 26.9916" stroke="white" stroke-width="1.5" stroke-linecap="round" stroke-linejoin="round"/>
<path d="M48.096 52.6156C48.096 52.6156 53.28 36.8636 44.256 32.7996" stroke="white" stroke-width="1.5" stroke-linecap="round" stroke-linejoin="round"/>
<path d="M38.4639 32.7996C38.4639 32.7996 27.9279 33.3276 30.9919 51.9276" stroke="white" stroke-width="1.5" stroke-linecap="round" stroke-linejoin="round"/>
<path opacity="0.8" d="M57.728 28.176C64.44 18.576 66.5279 9.66402 62.5279 5.68801C58.5279 1.71201 49.5999 3.84001 40.0479 10.504C30.5119 3.84001 21.5999 1.65601 17.5519 5.68801C13.5039 9.72002 15.6479 18.56 22.3999 28.184C15.7359 37.72 13.5519 46.648 17.5999 50.68C18.3503 51.377 19.2319 51.9178 20.1933 52.2707C21.1547 52.6237 22.1768 52.7819 23.1999 52.736C24.6113 52.7149 26.0143 52.516 27.3759 52.144L26.7759 49.824C24.3759 50.456 21.0559 50.816 19.2159 48.984C16.4399 46.208 17.9759 38.84 23.8319 30.224C24.9679 31.712 26.2319 33.216 27.5439 34.712L29.3359 33.112C27.8639 31.512 26.5119 29.808 25.2959 28.168C29.4905 22.5947 34.4485 17.6395 40.0239 13.448C42.8127 15.5372 45.4463 17.8259 47.9039 20.296C50.3671 22.7522 52.6529 25.3801 54.7439 28.16C53.5813 29.76 52.3039 31.3333 50.9119 32.88L52.7039 34.48C53.9679 33.064 55.1039 31.64 56.2079 30.232C62.0639 38.84 63.5999 46.232 60.8239 48.992C59.3199 50.488 56.4799 50.744 52.8239 49.712L52.1999 52C53.7199 52.4518 55.2945 52.6941 56.8799 52.72C57.915 52.7761 58.9508 52.623 59.9253 52.2697C60.8999 51.9164 61.7932 51.3704 62.5519 50.664C66.5839 46.648 64.392 37.712 57.728 28.176ZM30.4719 18.576C28.1085 20.932 25.9061 23.4443 23.8799 26.096C18.3119 17.92 16.2639 10.4 19.2479 7.38402C22.0319 4.60001 29.3999 6.13601 38.0159 12C35.3568 14.0291 32.8365 16.2341 30.4719 18.6V18.576ZM49.6319 18.576C47.2675 16.2204 44.7501 14.0236 42.0959 12C50.7039 6.14401 58.0959 4.61601 60.8559 7.39202C63.8319 10.4 61.7759 17.92 56.2239 26.12C54.1875 23.4673 51.9745 20.9549 49.5999 18.6L49.6319 18.576Z" fill="url(#paint0_linear_511_505)"/>
<path d="M33.7679 43.6079C33.7679 43.6079 32.5199 50.5999 40.7359 50.5839C43.2159 50.5839 45.2479 50.3759 45.9919 42.3359" stroke="white" stroke-width="1.5" stroke-linecap="round" stroke-linejoin="round"/>
<path d="M56.632 58.9433C53.144 61.1753 48.632 63.2473 43.832 63.3113C37.7479 63.3238 31.7567 61.8198 26.4 58.9353C29.3237 59.6115 32.3894 59.2933 35.112 58.0312" stroke="white" stroke-width="1.5" stroke-linecap="round" stroke-linejoin="round"/>
<path d="M55.4639 71.2C50.9891 73.206 46.1284 74.2047 41.2253 74.126C36.3221 74.0474 31.4961 72.8927 27.0879 70.744C27.0879 70.744 26.0079 70.472 24.7599 72.344C23.9833 73.5547 23.4784 74.9193 23.2799 76.344" stroke="white" stroke-width="1.5" stroke-linecap="round" stroke-linejoin="round"/>
<path d="M60.6879 60.6406C57.1839 63.4406 48.7999 68.8007 37.8 66.5446" stroke="white" stroke-width="1.5" stroke-linecap="round" stroke-linejoin="round"/>
<path d="M57.5521 66.4714C57.5521 66.4714 48.2481 72.5274 37.8481 70.0314" stroke="white" stroke-width="1.5" stroke-linecap="round" stroke-linejoin="round"/>
<path d="M23.2799 61.4402C19.6794 64.5812 16.9699 68.6154 15.4239 73.1361" stroke="white" stroke-width="1.5" stroke-linecap="round" stroke-linejoin="round"/>
<defs>
<linearGradient id="paint0_linear_511_505" x1="40.0418" y1="3.65978" x2="40.0336" y2="52.7401" gradientUnits="userSpaceOnUse">
<stop stop-color="#40ED99"/>
<stop offset="0.45" stop-color="#3FEB98"/>
<stop offset="0.65" stop-color="#3DE493"/>
<stop offset="0.79" stop-color="#3AD78B"/>
<stop offset="0.91" stop-color="#35C680"/>
<stop offset="1" stop-color="#30B273"/>
</linearGradient>
</defs>
</svg>
